<?xml version="1.0" encoding="UTF-8" standalone="no"?>
<svg
   xmlns:dc="http://purl.org/dc/elements/1.1/"
   xmlns:cc="http://creativecommons.org/ns#"
   xmlns:rdf="http://www.w3.org/1999/02/22-rdf-syntax-ns#"
   xmlns:svg="http://www.w3.org/2000/svg"
   xmlns="http://www.w3.org/2000/svg"
   xmlns:sodipodi="http://sodipodi.sourceforge.net/DTD/sodipodi-0.dtd"
   xmlns:inkscape="http://www.inkscape.org/namespaces/inkscape"
   height="256px"
   style="shape-rendering:geometricPrecision; text-rendering:geometricPrecision; image-rendering:optimizeQuality; fill-rule:evenodd; clip-rule:evenodd"
   version="1.1"
   viewBox="0 0 366876 366876"
   width="256px"
   xml:space="preserve"
   id="svg4713"
   sodipodi:docname="nosotros.svg"
   inkscape:version="0.92.3 (2405546, 2018-03-11)"><metadata
     id="metadata4717"><rdf:RDF><cc:Work
         rdf:about=""><dc:format>image/svg+xml</dc:format><dc:type
           rdf:resource="http://purl.org/dc/dcmitype/StillImage" /></cc:Work></rdf:RDF></metadata><sodipodi:namedview
     pagecolor="#ffffff"
     bordercolor="#666666"
     borderopacity="1"
     objecttolerance="10"
     gridtolerance="10"
     guidetolerance="10"
     inkscape:pageopacity="0"
     inkscape:pageshadow="2"
     inkscape:window-width="1920"
     inkscape:window-height="1001"
     id="namedview4715"
     showgrid="false"
     inkscape:zoom="3.6875"
     inkscape:cx="148.31202"
     inkscape:cy="154.01699"
     inkscape:window-x="-9"
     inkscape:window-y="-9"
     inkscape:window-maximized="1"
     inkscape:current-layer="svg4713" /><defs
     id="defs4625"><style
       type="text/css"
       id="style4623">
   <![CDATA[
    .str0 {stroke:#001850;stroke-width:5732.39}
    .str1 {stroke:white;stroke-width:5732.39}
    .str2 {stroke:#001850;stroke-width:5732.39;stroke-linecap:round;stroke-linejoin:round}
    .fil2 {fill:none}
    .fil7 {fill:#001850}
    .fil8 {fill:#002985}
    .fil4 {fill:#00A3E0}
    .fil6 {fill:#00CCFF}
    .fil1 {fill:#CBEEFF}
    .fil5 {fill:#CCF5FF}
    .fil0 {fill:#E4FFFF}
    .fil3 {fill:white}
   ]]>
  </style></defs><g
     id="Layer_x0020_1"><path
       class="fil0"
       d="M53641 335064l18398 0c21042,0 21042,-31812 0,-31812l-49837 0c-21042,0 -21042,-31811 0,-31811l48823 0c21042,0 21044,-31812 0,-31812l-17534 0c-21042,0 -21042,-31811 0,-31811l87340 0 31070 0 47362 0c21042,0 21042,31811 0,31811l-8767 0c-21043,0 -21041,31812 0,31812l23905 0c21043,0 21043,31811 0,31811l-24918 0c-21042,0 -21042,31812 0,31812l7659 0c21043,0 21043,31811 0,31811l-45241 0 -31070 0 -87190 0c-21043,0 -21043,-31811 0,-31811z"
       id="path4627" /><path
       class="fil1"
       d="M148822 207817l163815 0c21042,0 21039,31812 0,31812l-16336 0c-22233,0 -24196,31811 2435,31811l45938 0c21043,0 21040,31813 0,31813l-66177 0c-21042,0 -21042,31811 0,31811l16014 0c21041,0 21040,31812 0,31812l-145689 0 -8777 -1c-21041,0 -21041,-31811 0,-31811l8777 0c21180,0 22063,-31812 0,-31812l-37466 0c-21040,0 -21041,-31811 0,-31811l27152 0c23299,717 26056,-31812 0,-31812l-16588 0c-21043,0 -21043,-31811 0,-31811l26902 0 0 -1zm184327 127247l-94 0c-8748,0 -15906,7156 -15906,15905l0 1c0,8749 7158,15905 15906,15905l94 0c8748,0 15905,-7156 15905,-15905l0 -1c0,-8749 -7157,-15905 -15905,-15905z"
       id="path4629" /><path
       class="fil3"
       d="M68257 41452l167094 0c7825,0 14228,6402 14228,14227l0 43590c0,7825 -6403,14227 -14228,14227l-120329 0 -34940 36969 -112 -36969 -11713 0c-7826,0 -14228,-6402 -14228,-14227l0 -43590c0,-7825 6402,-14227 14228,-14227z"
       id="path4633" /><path
       class="fil2 str0"
       d="M68257 41452l167094 0c7825,0 14228,6402 14228,14227l0 43590c0,7825 -6403,14227 -14228,14227l-120329 0 -34940 36969 -112 -36969 -11713 0c-7826,0 -14228,-6402 -14228,-14227l0 -43590c0,-7825 6402,-14227 14228,-14227z"
       id="path4635" /><path
       class="fil3"
       d="M273345 215861l323 25675 28527 -25675 10556 0c5648,0 10270,-4621 10270,-10269l0 -53631c0,-5648 -4622,-10270 -10270,-10270l-130081 0c-5649,0 -10270,4622 -10270,10270l0 53631c0,5648 4621,10269 10270,10269l90675 0z"
       id="path4637" /><path
       class="fil2 str0"
       d="M262393 215861l9930 0 323 25675 28527 -25675 11578 0c5648,0 10270,-4621 10270,-10269l0 -53631c0,-5648 -4622,-10270 -10270,-10270l-130081 0c-5649,0 -10270,4622 -10270,10270l0 53631c0,5648 4621,10269 10270,10269l7552 0"
       id="path4639" /><path
       class="fil4"
       d="M281105 221149l16730 -15057 14916 0c846,0 1569,-724 1569,-1570l0 -53630c0,-846 -723,-1569 -1569,-1569l-130081 0c-847,0 -1570,723 -1570,1569l0 53630c0,846 723,1570 1570,1570l98245 0 190 15057z"
       id="path4641" /><path
       class="fil2 str1"
       d="M192998 161589l109255 0m-109255 29667l75491 0m-75491 -14833l109255 0"
       id="path4643" /><path
       class="fil5"
       d="M76390 249815l5926 0 0 -11738c-3713,-3703 -7331,-7121 -8350,-12605 -1107,-5959 -2037,-18246 -2161,-33235 -297,-35937 58435,-35937 58138,0 -123,14989 -1053,27276 -2160,33235 -1019,5484 -4638,8902 -8350,12605l0 11738 5925 0c17895,0 32536,14641 32536,32535l0 27392c0,9838 -8050,17888 -17889,17888l-78262 0c-9839,0 -17888,-8050 -17888,-17888l0 -27392c0,-17894 14641,-32535 32535,-32535z"
       id="path4645" /><path
       class="fil6"
       d="M76390 249815l48968 0c17895,0 32536,14641 32536,32535l0 27391c0,9839 -8050,17888 -17888,17888l-78263 0c-9839,0 -17888,-8049 -17888,-17888l0 -27391c0,-17895 14641,-32535 32535,-32535z"
       id="path4647" /><path
       class="fil7"
       d="M82567 238430c-3712,-3703 -7330,-7121 -8349,-12605 -1107,-5959 -2037,-18245 -2161,-33235 -297,-35936 58435,-35936 58138,0 -124,14990 -1053,27276 -2160,33235 -1019,5484 -4637,8902 -8350,12605 -3712,3703 -22481,10191 -37118,0z"
       id="path4649" /><path
       class="fil6"
       d="M88492 129227l22878 -24206 123981 0c3146,0 5752,-2605 5752,-5752l0 -43590c0,-3147 -2605,-5752 -5752,-5752l-167095 0c-3147,0 -5752,2605 -5752,5752l0 43590c0,3147 2605,5752 5752,5752l20164 0 72 24206z"
       id="path4651" /><path
       class="fil2 str0"
       d="M74675 59236l155590 0m-155590 31481l76970 0m-76970 -15740l155590 0"
       id="path4653" /><path
       class="fil2 str0"
       d="M284512 55649c-383,-13959 16640,-20842 26569,-13213 9480,7282 10704,24696 -2852,30725 -4381,1947 -5832,3669 -6307,6194 -261,1383 -231,10737 -231,10737m0 6007l0 6530"
       id="path4655" /><path
       class="fil2 str0"
       d="M150770 141132l0 36623m0 9753l0 6275"
       id="path4657" /><path
       class="fil7"
       d="M203385 257909c-2644,140 -4964,-1527 -5675,-4077 -6171,-22126 4757,-48633 27884,-48421 23126,-212 34054,26295 27883,48421 -711,2550 -3031,4217 -5675,4077l-44417 0z"
       id="path4659" /><path
       class="fil2 str0"
       d="M206999 257909l-3614 0c-2647,0 -4964,-1527 -5675,-4077 -6170,-22126 4757,-48633 27884,-48421 23126,-212 34054,26295 27883,48421 -711,2550 -3028,4077 -5674,4077l-4684 0"
       id="path4661" /><path
       class="fil5"
       d="M208756 269782l4074 0 0 -14311c-2552,-2547 -5041,-4897 -5742,-8669 -428,-2305 -817,-5987 -1092,-10603 15919,2653 25266,-15225 25266,-15225 673,7990 7090,12220 14037,13240 -274,5546 -713,9961 -1200,12588 -701,3772 -3189,6122 -5742,8669l0 14311 4074 0c12306,0 22375,10069 22375,22375l0 18836c0,6766 -5536,12302 -12302,12302l-53821 0c-6766,0 -12302,-5535 -12302,-12302l0 -18836c0,-12306 10068,-22375 22375,-22375z"
       id="path4663" /><path
       class="fil3"
       d="M208756 269782l4074 0 7878 12690c1079,1739 2838,2717 4885,2717 2047,0 3806,-978 4886,-2717l7877 -12690 4075 0c12306,0 22375,10069 22375,22375l0 18836c0,6767 -5536,12302 -12302,12302l-26911 0 -26910 0c-6766,0 -12302,-5535 -12302,-12302l0 -18836c0,-12306 10068,-22375 22375,-22375z"
       id="path4665" /><path
       class="fil2 str0"
       d="M212831 255471c0,0 11569,16147 25525,0"
       id="path4667" /><path
       class="fil2 str2"
       d="M212831 269782l0 -14311c-2554,-2547 -5042,-4897 -5743,-8669 -432,-2330 -826,-6067 -1100,-10752m39311 -1836c-275,5214 -734,10075 -1200,12588 -701,3772 -3189,6122 -5743,8669l0 14311"
       id="path4669" /><path
       class="fil2 str0"
       d="M245299 232065c-6947,-1020 -13364,-5251 -14037,-13240 0,0 -9347,17878 -25266,15224"
       id="path4671" /><path
       class="fil2 str0"
       d="M208756 269782l4074 0 7878 12690c1079,1739 2838,2717 4885,2717 2047,0 3806,-978 4886,-2717l7877 -12690 4075 0c12306,0 22375,10069 22375,22375l0 18836c0,6767 -5536,12302 -12302,12302l-26911 0 -26910 0c-6766,0 -12302,-5535 -12302,-12302l0 -18836c0,-12306 10068,-22375 22375,-22375z"
       id="path4673" /><path
       class="fil8"
       d="M241366 275194l-6290 10132c-2067,3328 -5565,5274 -9482,5274 -3919,0 -7417,-1946 -9484,-5274l-6290 -10132 -1064 0c-9320,0 -16964,7643 -16964,16963l0 18837c0,3779 3112,6890 6891,6890l53821 0c3779,0 6891,-3111 6891,-6890l0 -18837c0,-9320 -7645,-16963 -16964,-16963l-1065 0z"
       id="path4675" /><path
       class="fil2 str0"
       d="M119433 238076c-3713,4101 -22481,11287 -37118,0"
       id="path4677" /><path
       class="fil2 str2"
       d="M157893 309742c0,9838 -8050,17888 -17888,17888l-78262 0c-9839,0 -17889,-8049 -17889,-17888l1 -27392c0,-17894 14641,-32535 32535,-32535l5926 0 0 -11739c-3713,-3702 -7331,-7120 -8350,-12605 -1107,-5958 -2037,-18245 -2160,-33234 -297,-35937 58434,-35937 58137,0 -123,14989 -1053,27276 -2160,33234 -1019,5485 -4638,8903 -8350,12605l0 11739 5925 0c17895,0 32536,14641 32536,32535l-1 27392z"
       id="path4705" /></g><g
     id="Layer_x0020_2"><rect
       class="fil2"
       height="366876"
       width="366876"
       id="rect4710" /></g></svg>