<?xml version="1.0" encoding="UTF-8" standalone="no"?>
<svg
   xmlns:dc="http://purl.org/dc/elements/1.1/"
   xmlns:cc="http://creativecommons.org/ns#"
   xmlns:rdf="http://www.w3.org/1999/02/22-rdf-syntax-ns#"
   xmlns:svg="http://www.w3.org/2000/svg"
   xmlns="http://www.w3.org/2000/svg"
   xmlns:sodipodi="http://sodipodi.sourceforge.net/DTD/sodipodi-0.dtd"
   xmlns:inkscape="http://www.inkscape.org/namespaces/inkscape"
   height="256px"
   style="shape-rendering:geometricPrecision; text-rendering:geometricPrecision; image-rendering:optimizeQuality; fill-rule:evenodd; clip-rule:evenodd"
   version="1.1"
   viewBox="0 0 41660 41660"
   width="256px"
   xml:space="preserve"
   id="svg7368"
   sodipodi:docname="proyectos.svg"
   inkscape:version="0.92.3 (2405546, 2018-03-11)"><metadata
     id="metadata7372"><rdf:RDF><cc:Work
         rdf:about=""><dc:format>image/svg+xml</dc:format><dc:type
           rdf:resource="http://purl.org/dc/dcmitype/StillImage" /></cc:Work></rdf:RDF></metadata><sodipodi:namedview
     pagecolor="#ffffff"
     bordercolor="#666666"
     borderopacity="1"
     objecttolerance="10"
     gridtolerance="10"
     guidetolerance="10"
     inkscape:pageopacity="0"
     inkscape:pageshadow="2"
     inkscape:window-width="1920"
     inkscape:window-height="1001"
     id="namedview7370"
     showgrid="false"
     inkscape:zoom="2.6074563"
     inkscape:cx="123.25379"
     inkscape:cy="108.3212"
     inkscape:window-x="-9"
     inkscape:window-y="-9"
     inkscape:window-maximized="1"
     inkscape:current-layer="svg7368" /><defs
     id="defs7238"><style
       type="text/css"
       id="style7236">
   <![CDATA[
    .str0 {stroke:#001850;stroke-width:650.941}
    .str1 {stroke:white;stroke-width:650.941}
    .str2 {stroke:#001850;stroke-width:650.941;stroke-linejoin:round}
    .fil2 {fill:none}
    .fil6 {fill:#00A3E0}
    .fil3 {fill:#00CCFF}
    .fil7 {fill:#53B4ED}
    .fil1 {fill:#CBEEFF}
    .fil5 {fill:#CCF5FF}
    .fil0 {fill:#E4FFFF}
    .fil4 {fill:white}
   ]]>
  </style></defs><g
     id="Layer_x0020_1"><path
       class="fil0"
       d="M6091 38048l2089 0c2390,0 2390,-3612 0,-3612l-5659 0c-2389,0 -2389,-3613 0,-3613l5544 0c2390,0 2390,-3612 0,-3612l-1991 0c-2389,0 -2389,-3612 0,-3612l9918 0 3528 0 5378 0c2390,0 2390,3612 0,3612l-995 0c-2390,0 -2390,3612 0,3612l2714 0c2390,0 2390,3613 0,3613l-2829 0c-2390,0 -2390,3612 0,3612l870 0c2389,0 2389,3612 0,3612l-5138 0 -3528 0 -9901 0c-2389,0 -2389,-3612 0,-3612z"
       id="path7240" /><path
       class="fil1"
       d="M16900 23599l18601 0c2390,0 2390,3612 0,3612l-1855 0c-2524,0 -2747,3612 277,3612l5216 0c2390,0 2390,3613 0,3613l-7514 0c-2390,0 -2390,3612 0,3612l1818 0c2389,0 2389,3612 0,3612l-16543 0 -997 0c-2390,0 -2390,-3612 0,-3612l997 0c2404,0 2505,-3612 0,-3612l-4255 0c-2389,0 -2389,-3613 0,-3613l3083 0c2646,82 2959,-3612 0,-3612l-1883 0c-2390,0 -2390,-3612 0,-3612l3055 0 0 0zm20931 14449l-11 0c-993,0 -1806,813 -1806,1806l0 0c0,994 813,1806 1806,1806l11 0c993,0 1806,-812 1806,-1806l0 0c0,-993 -813,-1806 -1806,-1806z"
       id="path7242" /><path
       class="fil3"
       d="M20830 1239c2150,0 3893,1743 3893,3893 0,1487 -834,2780 -2059,3435l0 2303c0,595 -487,1082 -1082,1082l-1503 0c-595,0 -1082,-487 -1082,-1082l0 -2303c-1226,-655 -2060,-1948 -2060,-3435 0,-2150 1743,-3893 3893,-3893z"
       id="path7248" /><path
       class="fil2 str0"
       d="M20830 1239c2150,0 3893,1743 3893,3893 0,1487 -834,2780 -2059,3435l0 2303c0,595 -487,1082 -1082,1082l-1503 0c-595,0 -1082,-487 -1082,-1082l0 -2303c-1226,-655 -2060,-1948 -2060,-3435 0,-2150 1743,-3893 3893,-3893z"
       id="path7250" /><line
       class="fil2 str0"
       x1="20830"
       x2="20830"
       y1="5460"
       y2="10103"
       id="line7252" /><line
       class="fil2 str1"
       x1="22339"
       x2="19321"
       y1="5460"
       y2="5460"
       id="line7254" /><line
       class="fil2 str0"
       x1="22664"
       x2="18997"
       y1="10103"
       y2="10103"
       id="line7256" /><line
       class="fil2 str0"
       x1="20830"
       x2="20830"
       y1="11952"
       y2="13469"
       id="line7258" /><polygon
       class="fil3"
       points="6084,14388 20830,14388 35577,14388 35577,36649 20830,36649 6084,36649 "
       id="polygon7260" /><polygon
       class="fil2 str0"
       points="6084,14388 20830,14388 35577,14388 35577,36649 20830,36649 6084,36649 "
       id="polygon7262" /><rect
       class="fil4"
       height="19838"
       width="13683"
       x="20830"
       y="15239"
       id="rect7264" /><line
       class="fil2 str0"
       x1="23896"
       x2="32935"
       y1="17259"
       y2="17259"
       id="line7266" /><line
       class="fil2 str0"
       x1="23896"
       x2="32935"
       y1="19173"
       y2="19173"
       id="line7268" /><line
       class="fil2 str0"
       x1="23896"
       x2="27671"
       y1="21087"
       y2="21087"
       id="line7270" /><line
       class="fil2 str0"
       x1="23896"
       x2="32935"
       y1="23002"
       y2="23002"
       id="line7272" /><line
       class="fil2 str0"
       x1="23896"
       x2="32935"
       y1="24916"
       y2="24916"
       id="line7274" /><line
       class="fil2 str0"
       x1="23896"
       x2="32935"
       y1="26830"
       y2="26830"
       id="line7276" /><line
       class="fil2 str0"
       x1="23896"
       x2="32935"
       y1="28744"
       y2="28744"
       id="line7278" /><line
       class="fil2 str0"
       x1="23896"
       x2="29745"
       y1="30658"
       y2="30658"
       id="line7280" /><rect
       class="fil4"
       height="19838"
       width="13683"
       x="7147"
       y="15239"
       id="rect7282" /><line
       class="fil2 str0"
       x1="9628"
       x2="18668"
       y1="17259"
       y2="17259"
       id="line7284" /><line
       class="fil2 str0"
       x1="9628"
       x2="18668"
       y1="19173"
       y2="19173"
       id="line7286" /><line
       class="fil2 str0"
       x1="9628"
       x2="13404"
       y1="21087"
       y2="21087"
       id="line7288" /><line
       class="fil2 str0"
       x1="9628"
       x2="18668"
       y1="23002"
       y2="23002"
       id="line7290" /><line
       class="fil2 str0"
       x1="9628"
       x2="18668"
       y1="24916"
       y2="24916"
       id="line7292" /><line
       class="fil2 str0"
       x1="9628"
       x2="18668"
       y1="26830"
       y2="26830"
       id="line7294" /><line
       class="fil2 str0"
       x1="9628"
       x2="18668"
       y1="28744"
       y2="28744"
       id="line7296" /><line
       class="fil2 str0"
       x1="9628"
       x2="15477"
       y1="30658"
       y2="30658"
       id="line7298" /><line
       class="fil2 str0"
       x1="20830"
       x2="20830"
       y1="14388"
       y2="36649"
       id="line7300" /><polygon
       class="fil5"
       points="30189,11970 20830,15239 20830,35077 30189,31808 "
       id="polygon7302" /><polygon
       class="fil4"
       points="29426,13039 21593,15774 21593,34008 29426,31272 "
       id="polygon7304" /><line
       class="fil2 str0"
       x1="22400"
       x2="28221"
       y1="16975"
       y2="14663"
       id="line7306" /><line
       class="fil2 str0"
       x1="22400"
       x2="28221"
       y1="18890"
       y2="16577"
       id="line7308" /><line
       class="fil2 str0"
       x1="22400"
       x2="24831"
       y1="20804"
       y2="19838"
       id="line7310" /><line
       class="fil2 str0"
       x1="22400"
       x2="28221"
       y1="22718"
       y2="20405"
       id="line7312" /><line
       class="fil2 str0"
       x1="22400"
       x2="28221"
       y1="24632"
       y2="22319"
       id="line7314" /><line
       class="fil2 str0"
       x1="22400"
       x2="28221"
       y1="26546"
       y2="24234"
       id="line7316" /><line
       class="fil2 str0"
       x1="22400"
       x2="28221"
       y1="28461"
       y2="26148"
       id="line7318" /><line
       class="fil2 str0"
       x1="22400"
       x2="26166"
       y1="30375"
       y2="28878"
       id="line7320" /><polygon
       class="fil2 str0"
       points="30189,11970 20830,15239 20830,35077 30189,31808 "
       id="polygon7322" /><circle
       class="fil2 str0"
       cx="31146"
       cy="8541"
       r="2032"
       id="circle7324" /><path
       class="fil2 str0"
       d="M32664 7190c939,-710 2121,-710 3061,0"
       id="path7326" /><circle
       class="fil2 str0"
       cx="37315"
       cy="8541"
       r="2032"
       id="circle7328" /><path
       class="fil2 str2"
       d="M32776 4083l-813 -332c-336,-137 -538,73 -703,373l-1950 3546"
       id="path7330" /><path
       class="fil2 str2"
       d="M35691 4083l813 -332c335,-137 538,73 702,373l1950 3546"
       id="path7332" /><path
       class="fil6"
       d="M8976 3701c-162,0 -324,0 -486,0l-296 1222 -275 98c-274,98 -529,246 -751,434l-222 189 -1207 -354c-81,140 -162,281 -243,421l909 867 -52 287c-26,143 -39,289 -39,434 0,146 13,291 39,435l52 286 -909 868c81,140 162,280 243,421l1207 -355 222 189c222,189 477,336 751,435l275 98 296 1221c162,0 324,0 486,0l296 -1221 275 -99c274,-98 529,-245 751,-434l222 -189 1207 355c81,-141 162,-281 243,-421l-909 -868 52 -286c26,-144 39,-289 39,-435 0,-145 -13,-291 -39,-434l-52 -287 909 -867c-81,-140 -162,-281 -243,-421l-1207 354 -222 -189c-222,-188 -477,-336 -751,-434l-275 -98 -296 -1222zm-243 1784c1002,0 1814,812 1814,1814 0,1002 -812,1814 -1814,1814 -1002,0 -1814,-812 -1814,-1814 0,-1002 812,-1814 1814,-1814z"
       id="path7334" /><path
       class="fil2 str0"
       d="M8733 6026c703,0 1273,570 1273,1273 0,704 -570,1274 -1273,1274 -703,0 -1273,-570 -1273,-1274 0,-703 570,-1273 1273,-1273z"
       id="path7336" /><path
       class="fil2 str0"
       d="M9729 4512c339,121 650,303 919,531l1335 -392c223,386 445,772 668,1158l-1006 959c31,173 47,350 47,531 0,181 -16,359 -47,531l1006 960c-223,386 -445,771 -668,1157l-1335 -392c-269,229 -580,410 -919,532l-328 1351c-445,0 -891,0 -1336,0l-328 -1351c-339,-122 -650,-303 -919,-532l-1335 392c-223,-386 -445,-771 -668,-1157l1006 -960c-31,-172 -47,-350 -47,-531 0,-181 16,-358 47,-531l-1006 -959c223,-386 445,-772 668,-1158l1335 392c269,-228 580,-410 919,-531l328 -1351c445,0 891,0 1336,0l328 1351z"
       id="path7338" /><circle
       class="fil7"
       cx="31146"
       cy="8541"
       r="1351"
       id="circle7340" /><circle
       class="fil7"
       cx="37315"
       cy="8541"
       r="1351"
       id="circle7342" /></g><g
     id="Layer_x0020_2"><rect
       class="fil2"
       height="41661"
       width="41661"
       id="rect7365" /></g></svg>