<?xml version="1.0" encoding="UTF-8" standalone="no"?>
<svg
   xmlns:dc="http://purl.org/dc/elements/1.1/"
   xmlns:cc="http://creativecommons.org/ns#"
   xmlns:rdf="http://www.w3.org/1999/02/22-rdf-syntax-ns#"
   xmlns:svg="http://www.w3.org/2000/svg"
   xmlns="http://www.w3.org/2000/svg"
   xmlns:sodipodi="http://sodipodi.sourceforge.net/DTD/sodipodi-0.dtd"
   xmlns:inkscape="http://www.inkscape.org/namespaces/inkscape"
   height="256px"
   style="shape-rendering:geometricPrecision; text-rendering:geometricPrecision; image-rendering:optimizeQuality; fill-rule:evenodd; clip-rule:evenodd"
   version="1.1"
   viewBox="0 0 98743 98743"
   width="256px"
   xml:space="preserve"
   id="svg5718"
   sodipodi:docname="tecnologia.svg"
   inkscape:version="0.92.3 (2405546, 2018-03-11)"><metadata
     id="metadata5722"><rdf:RDF><cc:Work
         rdf:about=""><dc:format>image/svg+xml</dc:format><dc:type
           rdf:resource="http://purl.org/dc/dcmitype/StillImage" /></cc:Work></rdf:RDF></metadata><sodipodi:namedview
     pagecolor="#ffffff"
     bordercolor="#666666"
     borderopacity="1"
     objecttolerance="10"
     gridtolerance="10"
     guidetolerance="10"
     inkscape:pageopacity="0"
     inkscape:pageshadow="2"
     inkscape:window-width="1920"
     inkscape:window-height="1001"
     id="namedview5720"
     showgrid="false"
     inkscape:zoom="2.6074563"
     inkscape:cx="200.11186"
     inkscape:cy="131.79225"
     inkscape:window-x="-9"
     inkscape:window-y="-9"
     inkscape:window-maximized="1"
     inkscape:current-layer="svg5718" /><defs
     id="defs5495"><style
       type="text/css"
       id="style5493">
   <![CDATA[
    .str0 {stroke:#001850;stroke-width:1542.85}
    .str2 {stroke:white;stroke-width:1542.85}
    .str1 {stroke:#001850;stroke-width:1542.85;stroke-linecap:round;stroke-linejoin:round}
    .fil3 {fill:none}
    .fil5 {fill:#002985}
    .fil6 {fill:#00A3E0}
    .fil8 {fill:#00CCFF}
    .fil4 {fill:#53B4ED}
    .fil2 {fill:#CBEEFF}
    .fil7 {fill:#CCF5FF}
    .fil1 {fill:#E4FFFF}
    .fil0 {fill:white}
   ]]>
  </style></defs><g
     id="Layer_x0020_1"><polygon
       class="fil0"
       points="55795,45999 55795,50802 44541,50802 44541,45999 "
       id="polygon5497" /><path
       class="fil1"
       d="M14437 90181l4952 0c5663,0 5663,-8562 0,-8562l-13413 0c-5664,0 -5664,-8562 0,-8562l13140 0c5663,0 5664,-8562 0,-8562l-4719 0c-5664,0 -5664,-8562 0,-8562l23507 0 8362 0 12748 0c5663,0 5663,8562 0,8562l-2360 0c-5664,0 -5663,8562 0,8562l6434 0c5664,0 5664,8562 0,8562l-6707 0c-5663,0 -5663,8562 0,8562l2062 0c5664,0 5664,8562 0,8562l-12177 0 -8362 0 -23467 0c-5663,0 -5663,-8562 0,-8562z"
       id="path5499" /><path
       class="fil2"
       d="M40055 55933l44090 0c5663,0 5663,8562 0,8562l-4397 0c-5984,0 -6512,8562 655,8562l12365 0c5663,0 5662,8562 0,8562l-17812 0c-5663,0 -5663,8562 0,8562l4310 0c5663,0 5663,8562 0,8562l-39211 0 -2363 0c-5663,0 -5663,-8562 0,-8562l2363 0c5700,0 5938,-8562 0,-8562l-10084 0c-5663,0 -5663,-8562 0,-8562l7308 0c6271,193 7013,-8562 0,-8562l-4465 0c-5663,0 -5663,-8562 0,-8562l7241 0 0 0zm49611 34248l-26 0c-2354,0 -4281,1926 -4281,4281l0 0c0,2355 1927,4281 4281,4281l26 0c2354,0 4280,-1926 4280,-4281l0 0c0,-2355 -1926,-4281 -4280,-4281z"
       id="path5501" /><path
       class="fil0"
       d="M39737 51568l20862 0c4987,0 9068,4080 9068,9068l0 23928 -38998 0 0 -23928c0,-4988 4080,-9068 9068,-9068z"
       id="path5505" /><path
       class="fil3 str0"
       d="M39737 51568l20862 0c4987,0 9068,4080 9068,9068l0 23928 -38998 0 0 -23928c0,-4988 4080,-9068 9068,-9068z"
       id="path5507" /><path
       class="fil4"
       d="M32516 82717l35303 0 0 -22081c0,-3968 -3252,-7221 -7220,-7221l-20862 0c-3968,0 -7221,3253 -7221,7221l0 22081z"
       id="path5509" /><polygon
       class="fil3 str0"
       points="55795,46765 55795,51568 44541,51568 44541,46765 "
       id="polygon5511" /><g
       id="_594488424"><path
         class="fil0"
         d="M39737 51568c0,0 -7406,-3302 -14026,1948l-8998 9048c1945,290 3436,1968 3436,3994 0,94 -3,188 -10,281l10530 -4215 0 -1988c0,-4988 4080,-9068 9068,-9068zm-25828 18375l233 5621c442,-311 981,-494 1563,-494 544,0 1051,160 1476,434l127 -5089c-378,118 -780,181 -1197,181 -812,0 -1568,-240 -2202,-653z"
         id="path5513" /><circle
         class="fil0"
         cx="16111"
         cy="66557"
         r="4038"
         id="circle5515" /><g
         id="g5521"><path
           class="fil0"
           d="M14297 80126l-2481 2095 828 4899 -1151 257 -1919 -5652 3413 -4105c-4,57 -5,115 -5,174 0,989 526,1855 1315,2332z"
           id="path5517" /><path
           class="fil0"
           d="M17114 80126l2480 2095 -827 4899 1150 257 1920 -5652 -3414 -4105c4,57 6,115 6,174 0,989 -527,1855 -1315,2332z"
           id="path5519" /></g><circle
         class="fil0"
         cx="15705"
         cy="77794"
         r="2724"
         id="circle5523" /></g><path
       class="fil3 str0"
       d="M13909 69943l233 5621c442,-311 981,-494 1563,-494 544,0 1051,160 1476,434l127 -5089c-378,118 -780,181 -1197,181 -812,0 -1568,-240 -2202,-653z"
       id="path5526" /><path
       class="fil3 str0"
       d="M39737 51568c0,0 -7406,-3302 -14026,1948l-8998 9048c1945,290 3436,1968 3436,3994 0,94 -3,188 -10,281l10530 -4215 0 -1988c0,-4988 4080,-9068 9068,-9068z"
       id="path5528" /><path
       class="fil5"
       d="M34191 51858c-2785,13 -5364,896 -7599,2648l-7531 7573c1030,680 1805,1704 2173,2897l8112 -3247 0 -1093c0,-3682 1938,-6931 4845,-8778z"
       id="path5530" /><circle
       class="fil3 str0"
       cx="16111"
       cy="66557"
       r="4038"
       id="circle5532" /><path
       class="fil3 str0"
       d="M14297 80126l-2481 2095 828 4899 -1151 257 -1919 -5652 3413 -4105c-4,57 -5,115 -5,174 0,989 526,1855 1315,2332z"
       id="path5534" /><path
       class="fil3 str0"
       d="M17114 80126l2480 2095 -827 4899 1150 257 1920 -5652 -3414 -4105c4,57 6,115 6,174 0,989 -527,1855 -1315,2332z"
       id="path5536" /><circle
       class="fil3 str0"
       cx="15705"
       cy="77794"
       r="2724"
       id="circle5538" /><circle
       class="fil4"
       cx="16111"
       cy="66557"
       r="1642"
       id="circle5540" /><circle
       class="fil4"
       cx="15705"
       cy="77794"
       r="988"
       id="circle5542" /><g
       id="_594510624"><path
         class="fil0"
         d="M60599 51568c0,0 7406,-3302 14026,1948l8998 9048c-1945,290 -3437,1968 -3437,3994 0,94 4,188 10,281l-10529 -4215 0 -1988c0,-4988 -4081,-9068 -9068,-9068zm25828 18375l-233 5621c-442,-311 -982,-494 -1563,-494 -544,0 -1051,160 -1476,434l-127 -5089c378,118 780,181 1196,181 813,0 1569,-240 2203,-653z"
         id="path5544" /><circle
         class="fil0"
         cx="84224"
         cy="66557"
         r="4038"
         id="circle5546" /><g
         id="g5552"><path
           class="fil0"
           d="M86039 80126l2480 2095 -827 4899 1150 257 1920 -5652 -3413 -4105c3,57 5,115 5,174 0,989 -527,1855 -1315,2332z"
           id="path5548" /><path
           class="fil0"
           d="M83222 80126l-2481 2095 828 4899 -1151 257 -1919 -5652 3413 -4105c-3,57 -5,115 -5,174 0,989 527,1855 1315,2332z"
           id="path5550" /></g><circle
         class="fil0"
         cx="84630"
         cy="77794"
         r="2724"
         id="circle5554" /></g><path
       class="fil3 str0"
       d="M86427 69943l-233 5621c-442,-311 -982,-494 -1563,-494 -544,0 -1051,160 -1476,434l-127 -5089c378,118 780,181 1196,181 813,0 1569,-240 2203,-653z"
       id="path5557" /><path
       class="fil3 str0"
       d="M60599 51568c0,0 7406,-3302 14026,1948l8998 9048c-1945,290 -3437,1968 -3437,3994 0,94 4,188 10,281l-10529 -4215 0 -1988c0,-4988 -4081,-9068 -9068,-9068z"
       id="path5559" /><path
       class="fil5"
       d="M66145 51858c2785,13 5364,896 7598,2648l7532 7573c-1031,680 -1805,1704 -2174,2897l-8111 -3247 0 -1093c0,-3682 -1938,-6931 -4845,-8778z"
       id="path5561" /><circle
       class="fil3 str0"
       cx="84224"
       cy="66557"
       r="4038"
       id="circle5563" /><path
       class="fil3 str0"
       d="M86039 80126l2480 2095 -827 4899 1150 257 1920 -5652 -3413 -4105c3,57 5,115 5,174 0,989 -527,1855 -1315,2332z"
       id="path5565" /><path
       class="fil3 str0"
       d="M83222 80126l-2481 2095 828 4899 -1151 257 -1919 -5652 3413 -4105c-3,57 -5,115 -5,174 0,989 527,1855 1315,2332z"
       id="path5567" /><circle
       class="fil3 str0"
       cx="84630"
       cy="77794"
       r="2724"
       id="circle5569" /><circle
       class="fil4"
       cx="84224"
       cy="66557"
       r="1642"
       id="circle5571" /><circle
       class="fil4"
       cx="84631"
       cy="77794"
       r="988"
       id="circle5573" /><polygon
       class="fil6"
       points="74730,16230 94401,16230 94401,30116 82464,30116 76863,35432 76863,30116 74730,30116 "
       id="polygon5575" /><rect
       class="fil7"
       height="28628"
       rx="5731"
       ry="8261"
       width="26612"
       x="36862"
       y="17371"
       id="rect5577" /><path
       class="fil8"
       d="M18763 34174c-5,2540 -3987,2533 -3987,0 0,-198 36,-388 101,-565 -224,76 -464,117 -714,117 -1232,0 -2231,-1003 -2231,-2240 0,-377 93,-733 258,-1045 -1345,-12 -2432,-1157 -2432,-2568 0,-1195 779,-2199 1835,-2486 -575,-482 -943,-1223 -943,-2053 0,-1422 1078,-2580 2424,-2627 -274,-1665 1444,-2800 2765,-2017 56,-743 676,-1329 1474,-1329 798,0 1479,642 1478,1433 -2,-791 656,-1433 1454,-1433 798,0 1418,586 1473,1329 1321,-783 3039,352 2765,2017 1347,47 2425,1205 2425,2626 0,831 -368,1572 -943,2054 1055,287 1835,1291 1835,2486 0,1411 -1087,2556 -2432,2568 164,312 257,668 257,1045 0,1237 -998,2240 -2230,2240 -250,0 -490,-41 -715,-117 66,177 102,367 102,565 0,2533 -4014,2540 -4019,0z"
       id="path5579" /><rect
       class="fil3 str0"
       height="28628"
       rx="5731"
       ry="8261"
       width="26612"
       x="36862"
       y="18137"
       id="rect5581" /><rect
       class="fil0"
       height="25469"
       rx="6099"
       ry="6099"
       width="23453"
       x="38441"
       y="19716"
       id="rect5583" /><path
       class="fil3 str1"
       d="M18760 35730c-6,3070 -4819,3062 -4819,0 0,-239 43,-469 122,-683 -271,92 -562,142 -864,142 -1489,0 -2696,-1213 -2696,-2708 0,-456 113,-886 312,-1263 -1626,-15 -2940,-1399 -2940,-3104 0,-1445 942,-2658 2218,-3005 -695,-582 -1140,-1478 -1140,-2482 0,-1718 1303,-3118 2931,-3174 -331,-2013 1745,-3385 3342,-2439 67,-898 817,-1606 1781,-1606 965,0 1788,776 1786,1732 -2,-956 793,-1732 1757,-1732 965,0 1715,708 1782,1606 1596,-946 3673,426 3342,2439 1627,56 2930,1456 2930,3174 0,1004 -445,1900 -1140,2482 1276,347 2219,1560 2219,3005 0,1705 -1314,3089 -2940,3104 199,377 311,807 311,1263 0,1495 -1207,2707 -2696,2707 -302,0 -592,-49 -863,-141 79,214 122,444 122,683 0,3062 -4852,3070 -4857,0z"
       id="path5585" /><path
       class="fil3 str1"
       d="M10093 25109c177,198 2078,1832 4168,316"
       id="path5587" /><path
       class="fil3 str1"
       d="M11884 19453c0,0 279,1396 1627,1848"
       id="path5589" /><path
       class="fil3 str1"
       d="M11989 30061c-333,212 -862,531 -1174,1157"
       id="path5591" /><path
       class="fil3 str1"
       d="M15203 33907c-463,82 -941,546 -1140,1140"
       id="path5593" /><path
       class="fil3 str1"
       d="M27464 25109c-177,198 -2078,1832 -4167,316"
       id="path5595" /><path
       class="fil3 str1"
       d="M25674 19453c0,0 -279,1396 -1627,1848"
       id="path5597" /><path
       class="fil3 str1"
       d="M25568 30061c334,212 862,531 1175,1157"
       id="path5599" /><path
       class="fil3 str1"
       d="M22355 33907c463,82 941,546 1140,1140"
       id="path5601" /><line
       class="fil3 str0"
       x1="18793"
       x2="18793"
       y1="17140"
       y2="21708"
       id="line5603" /><circle
       class="fil3 str0"
       cx="18793"
       cy="23188"
       r="1479"
       id="circle5605" /><circle
       class="fil3 str0"
       cx="22109"
       cy="30078"
       r="1479"
       id="circle5607" /><line
       class="fil3 str0"
       x1="23587"
       x2="25568"
       y1="30083"
       y2="30068"
       id="line5609" /><circle
       class="fil3 str0"
       cx="15449"
       cy="30078"
       r="1479"
       id="circle5611" /><line
       class="fil3 str0"
       x1="13970"
       x2="11989"
       y1="30083"
       y2="30068"
       id="line5613" /><circle
       class="fil3 str0"
       cx="44260"
       cy="30346"
       r="3542"
       id="circle5615" /><circle
       class="fil8"
       cx="44260"
       cy="30346"
       r="1561"
       id="circle5617" /><circle
       class="fil3 str0"
       cx="56076"
       cy="30346"
       r="3542"
       id="circle5619" /><circle
       class="fil8"
       cx="56076"
       cy="30346"
       r="1561"
       id="circle5621" /><path
       class="fil7"
       d="M45759 37556l8820 0c413,0 765,236 923,617 158,381 106,831 -217,1088l-3772 3008c-430,343 -1966,350 -2406,21l-4055 -3029c-330,-246 -374,-707 -216,-1088 158,-381 510,-617 923,-617z"
       id="path5623" /><path
       class="fil3 str0"
       d="M45759 37556l8820 0c413,0 765,236 923,617 158,381 106,831 -217,1088l-3772 3008c-430,343 -1966,350 -2406,21l-4055 -3029c-330,-246 -374,-707 -216,-1088 158,-381 510,-617 923,-617z"
       id="path5625" /><path
       class="fil3 str0"
       d="M46593 18137l7150 0 0 4003c0,764 -626,1390 -1390,1390l-4370 0c-764,0 -1390,-626 -1390,-1390l0 -4003z"
       id="path5627" /><path
       class="fil6"
       d="M47937 19434l4462 0 0 2312c0,225 -185,410 -410,410l-3642 0c-226,0 -410,-185 -410,-410l0 -2312z"
       id="path5629" /><rect
       class="fil7"
       height="9960"
       width="4333"
       x="63474"
       y="27551"
       id="rect5631" /><rect
       class="fil3 str0"
       height="9960"
       width="4333"
       x="63474"
       y="27551"
       id="rect5633" /><line
       class="fil3 str0"
       x1="66484"
       x2="66484"
       y1="20733"
       y2="25816"
       id="line5635" /><path
       class="fil3 str0"
       d="M63596 15131c738,-741 1759,-1200 2888,-1200 1128,0 2149,459 2887,1200"
       id="path5637" /><path
       class="fil3 str0"
       d="M61328 11939c1390,-1181 3189,-1894 5156,-1894 1966,0 3766,713 5155,1894"
       id="path5639" /><path
       class="fil3 str0"
       d="M59090 8789c2025,-1625 4595,-2599 7394,-2599 2798,0 5369,974 7393,2599"
       id="path5641" /><circle
       class="fil3 str0"
       cx="66484"
       cy="19194"
       r="1539"
       id="circle5643" /><polygon
       class="fil3 str0"
       points="74730,16230 94401,16230 94401,30116 82464,30116 76863,35432 76863,30116 74730,30116 "
       id="polygon5645" /><g
       id="_594513456"><line
         class="fil3 str2"
         x1="77638"
         x2="91493"
         y1="19682"
         y2="19682"
         id="line5647" /><line
         class="fil3 str2"
         x1="77638"
         x2="91493"
         y1="23036"
         y2="23036"
         id="line5649" /><line
         class="fil3 str2"
         x1="77638"
         x2="86382"
         y1="26390"
         y2="26390"
         id="line5651" /></g><polygon
       class="fil7"
       points="54264,48299 54264,50033 46072,50033 46072,48299 "
       id="polygon5654" /><rect
       class="fil0"
       height="10182"
       rx="1522"
       ry="1726"
       width="24510"
       x="37913"
       y="59436"
       id="rect5656" /><rect
       class="fil3 str0"
       height="10182"
       rx="1522"
       ry="1726"
       width="24510"
       x="37913"
       y="59436"
       id="rect5658" /><line
       class="fil3 str0"
       x1="44720"
       x2="54882"
       y1="73559"
       y2="73559"
       id="line5660" /><line
       class="fil3 str0"
       x1="47107"
       x2="52495"
       y1="77175"
       y2="77175"
       id="line5662" /><circle
       class="fil8"
       cx="42951"
       cy="64528"
       r="1925"
       id="circle5664" /><circle
       class="fil8"
       cx="50168"
       cy="64528"
       r="1925"
       id="circle5666" /><circle
       class="fil8"
       cx="57385"
       cy="64528"
       r="1925"
       id="circle5668" /><circle
       class="fil3 str0"
       cx="42951"
       cy="64528"
       r="1925"
       id="circle5670" /><circle
       class="fil3 str0"
       cx="50168"
       cy="64528"
       r="1925"
       id="circle5672" /><circle
       class="fil3 str0"
       cx="57385"
       cy="64528"
       r="1925"
       id="circle5674" /></g><g
     id="Layer_x0020_2"><rect
       class="fil3"
       height="98743"
       width="98743"
       id="rect5715" /></g></svg>